<mxfile host="65bd71144e">
    <diagram id="7JzNv-7phFswcEIXKfGw" name="Page-1">
        <mxGraphModel dx="1194" dy="503" grid="1" gridSize="10" guides="1" tooltips="1" connect="1" arrows="1" fold="1" page="1" pageScale="1" pageWidth="850" pageHeight="1100" math="0" shadow="0">
            <root>
                <mxCell id="0"/>
                <mxCell id="1" parent="0"/>
                <mxCell id="22" style="edgeStyle=none;html=1;entryX=1;entryY=0.5;entryDx=0;entryDy=0;exitX=0.5;exitY=0;exitDx=0;exitDy=0;" parent="1" source="21" target="21" edge="1">
                    <mxGeometry relative="1" as="geometry">
                        <mxPoint x="480" y="190" as="targetPoint"/>
                        <Array as="points">
                            <mxPoint x="520" y="220"/>
                            <mxPoint x="600" y="220"/>
                            <mxPoint x="600" y="360"/>
                        </Array>
                    </mxGeometry>
                </mxCell>
                <mxCell id="23" value="Backup&amp;nbsp;" style="edgeLabel;html=1;align=center;verticalAlign=middle;resizable=0;points=[];" parent="22" vertex="1" connectable="0">
                    <mxGeometry x="-0.3199" y="1" relative="1" as="geometry">
                        <mxPoint y="-16" as="offset"/>
                    </mxGeometry>
                </mxCell>
                <mxCell id="30" style="edgeStyle=none;html=1;entryX=0.006;entryY=0.732;entryDx=0;entryDy=0;entryPerimeter=0;exitX=0.994;exitY=0.73;exitDx=0;exitDy=0;exitPerimeter=0;" parent="1" source="21" target="28" edge="1">
                    <mxGeometry relative="1" as="geometry">
                        <mxPoint x="570" y="521" as="sourcePoint"/>
                    </mxGeometry>
                </mxCell>
                <mxCell id="31" value="Restore Backup&amp;nbsp;&lt;br&gt;(Copy Artifactory)" style="edgeLabel;html=1;align=center;verticalAlign=middle;resizable=0;points=[];" parent="30" vertex="1" connectable="0">
                    <mxGeometry x="0.2826" relative="1" as="geometry">
                        <mxPoint x="-14" y="19" as="offset"/>
                    </mxGeometry>
                </mxCell>
                <mxCell id="21" value="" style="rounded=1;whiteSpace=wrap;html=1;" parent="1" vertex="1">
                    <mxGeometry x="390" y="250" width="170" height="370" as="geometry"/>
                </mxCell>
                <mxCell id="18" style="edgeStyle=none;html=1;entryX=0;entryY=0.5;entryDx=0;entryDy=0;" parent="1" source="3" target="16" edge="1">
                    <mxGeometry relative="1" as="geometry"/>
                </mxCell>
                <mxCell id="19" style="edgeStyle=none;html=1;entryX=0;entryY=0.5;entryDx=0;entryDy=0;" parent="1" source="3" target="17" edge="1">
                    <mxGeometry relative="1" as="geometry"/>
                </mxCell>
                <mxCell id="3" value="Ansible" style="shape=image;imageAspect=0;aspect=fixed;verticalLabelPosition=bottom;verticalAlign=top;image=https://raw.githubusercontent.com/walkxcode/dashboard-icons/main/png/ansible.png;" parent="1" vertex="1">
                    <mxGeometry x="270" y="375" width="60" height="60" as="geometry"/>
                </mxCell>
                <mxCell id="8" value="Proxmox " style="shape=image;imageAspect=0;aspect=fixed;verticalLabelPosition=bottom;verticalAlign=top;image=https://raw.githubusercontent.com/walkxcode/dashboard-icons/main/png/proxmox.png;" parent="1" vertex="1">
                    <mxGeometry x="360" y="230" width="69.03" height="60" as="geometry"/>
                </mxCell>
                <mxCell id="13" style="edgeStyle=none;html=1;entryX=0.5;entryY=1;entryDx=0;entryDy=0;" parent="1" source="9" target="36" edge="1">
                    <mxGeometry relative="1" as="geometry">
                        <mxPoint x="80" y="430" as="targetPoint"/>
                    </mxGeometry>
                </mxCell>
                <mxCell id="9" value="Vagrantfile" style="verticalLabelPosition=bottom;html=1;verticalAlign=top;align=center;strokeColor=none;fillColor=#00BEF2;shape=mxgraph.azure.cloud_services_configuration_file;pointerEvents=1;" parent="1" vertex="1">
                    <mxGeometry x="56.25" y="525" width="47.5" height="50" as="geometry"/>
                </mxCell>
                <mxCell id="14" style="edgeStyle=none;html=1;" parent="1" edge="1">
                    <mxGeometry relative="1" as="geometry">
                        <mxPoint x="440" y="320" as="targetPoint"/>
                        <mxPoint x="150" y="388.4722222222222" as="sourcePoint"/>
                    </mxGeometry>
                </mxCell>
                <mxCell id="26" value="Bootstrap Image" style="edgeLabel;html=1;align=center;verticalAlign=middle;resizable=0;points=[];" parent="14" vertex="1" connectable="0">
                    <mxGeometry x="-0.2275" y="-1" relative="1" as="geometry">
                        <mxPoint x="-13" y="-22" as="offset"/>
                    </mxGeometry>
                </mxCell>
                <mxCell id="24" value="Execute (provisioner)" style="edgeStyle=none;html=1;entryX=0;entryY=0.5;entryDx=0;entryDy=0;" parent="1" target="3" edge="1">
                    <mxGeometry y="-15" relative="1" as="geometry">
                        <mxPoint as="offset"/>
                        <mxPoint x="150" y="405" as="sourcePoint"/>
                    </mxGeometry>
                </mxCell>
                <mxCell id="25" style="edgeStyle=none;html=1;exitX=1;exitY=0.75;exitDx=0;exitDy=0;entryX=0;entryY=0.5;entryDx=0;entryDy=0;" parent="1" target="17" edge="1">
                    <mxGeometry relative="1" as="geometry">
                        <mxPoint x="150" y="422.5" as="sourcePoint"/>
                    </mxGeometry>
                </mxCell>
                <mxCell id="16" value="Windows 11 VM (template)" style="shape=image;imageAspect=0;aspect=fixed;verticalLabelPosition=bottom;verticalAlign=top;image=https://raw.githubusercontent.com/walkxcode/dashboard-icons/main/png/windows-11.png;" parent="1" vertex="1">
                    <mxGeometry x="445" y="290" width="60" height="60" as="geometry"/>
                </mxCell>
                <mxCell id="17" value="Rocky Linux VM (template)" style="shape=image;imageAspect=0;aspect=fixed;verticalLabelPosition=bottom;verticalAlign=top;image=https://raw.githubusercontent.com/walkxcode/dashboard-icons/main/png/rocky-linux.png;" parent="1" vertex="1">
                    <mxGeometry x="440" y="505" width="70" height="70" as="geometry"/>
                </mxCell>
                <mxCell id="27" value="Bootstrap Image" style="edgeLabel;html=1;align=center;verticalAlign=middle;resizable=0;points=[];" parent="1" vertex="1" connectable="0">
                    <mxGeometry x="259.9971091474552" y="500.003905701912" as="geometry"/>
                </mxCell>
                <mxCell id="28" value="" style="rounded=1;whiteSpace=wrap;html=1;" parent="1" vertex="1">
                    <mxGeometry x="660" y="250" width="170" height="370" as="geometry"/>
                </mxCell>
                <mxCell id="29" value="Proxmox " style="shape=image;imageAspect=0;aspect=fixed;verticalLabelPosition=bottom;verticalAlign=top;image=https://raw.githubusercontent.com/walkxcode/dashboard-icons/main/png/proxmox.png;" parent="1" vertex="1">
                    <mxGeometry x="630" y="230" width="69.03" height="60" as="geometry"/>
                </mxCell>
                <mxCell id="33" value="Windows 11 VM (template)" style="shape=image;imageAspect=0;aspect=fixed;verticalLabelPosition=bottom;verticalAlign=top;image=https://raw.githubusercontent.com/walkxcode/dashboard-icons/main/png/windows-11.png;" parent="1" vertex="1">
                    <mxGeometry x="715" y="290" width="60" height="60" as="geometry"/>
                </mxCell>
                <mxCell id="34" value="Rocky Linux VM (template)" style="shape=image;imageAspect=0;aspect=fixed;verticalLabelPosition=bottom;verticalAlign=top;image=https://raw.githubusercontent.com/walkxcode/dashboard-icons/main/png/rocky-linux.png;" parent="1" vertex="1">
                    <mxGeometry x="710" y="505" width="70" height="70" as="geometry"/>
                </mxCell>
                <mxCell id="35" value="CI/CD" style="rounded=1;whiteSpace=wrap;html=1;" parent="1" vertex="1">
                    <mxGeometry x="120" y="250" width="120" height="60" as="geometry"/>
                </mxCell>
                <mxCell id="36" value="" style="shape=image;imageAspect=0;aspect=fixed;verticalLabelPosition=bottom;verticalAlign=top;image=data:image/png,iVBORw0KGgoAAAANSUhEUgAAAMsAAAD4CAMAAAB1y+ICAAAArlBMVEX///9isOIokMsokMzq6uookcxhsOJhsOEAiMgAicgbj8ofjckGi8kAhsejyuXs6+rm8PdhqdZPpdpCms80ltDv9fq+2Ox4stqQv+D08OxVq+C10+mdxeNOpNmBvufb6vWv1O+HuN3K4PD09PRyt+SgzeyRxenV5vPr9Pp5rtWpxt1bodFtr9nP2+Tg5OiNuNjB0+K2zd+gwtxApN8Af8XA1ueCs9a62vHY4+rL2+exmHLYAAAgAElEQVR4nO1dCVvjxrLF6mkttMxiicEWGAYyd5YwyU3y7uQl//+Pva7lVLe8ADbb3PelvmQAY1qqru3UovbBwRb66Xjbb96Yjt7v+hfH7969++klbuXJdDm9u97l/T+9E/oRublsw/T80e8GJ0QveFN70mXri7Y5etyb343ohzOby+ALVzT97cNvPX63Sj+Yol22LvJSuOnpyf1v/GmNkx+Om8u28K7whQ/T+T1v28wJKdrbcjO6+mUoiJnIjfvP161/sY2TNzabn8aaEeUSNYxMpvtlscU5rRvKj6FoxyuXZ14K17a/L4437/K9QnlDbn5auzzZfhGm/z4+3nxfj+HkLbgZ39ex8lK4+vTXxeb7eiwn717ZbNbv6yfmpe3/Xmy5r4cMZX2516GN9/XTwXz682LDr+i+3u3Gyqtxs01Zjr9vuePjs4NmI5f30iso2j1qv4WT48uPB560b1duXlg0OxiwcrL4Xg5XB74oVr3CW3Ozs9Yvfvk4lCXzUoQ689Zvzc3OQln8Oh/KyUR58a4Nv/8YZrOHeh0NZVVNWC7OUT6g6GY3en7R7K5e0VDKSTURuXA2ENlx069v7Z93V6+/PpJ6TapS5EKpQMRqzhXBH+2saM/Ize7q9e4rc0JyKWEvJBmiriy/76xoz2Q2exjKH3VLjDBVai/EiScP0E3K4eNfb2I2OzuexW99WwTiQphRnxwtJv4Xv+ni6+Uwf32z2cNQ7up4x4G5mIxtv2Bf1vEvyuHidf3z7up1/GcdPFm48FKy8Yvtk1jI+jsWWVkO1WvCmp05WfzcBsf+KpBusYJpfBHLpygT7UW1b7j665UUbctltuKQ48XfXS0Zv/NBrKViZq4OOhEKW38nnBCnw8efdzWbxd+7c3KyllVhrS045PjdfBq8V6sIavaRm6r8dHDUwGDIXlQuQ/V98bXeKRtY/Hr1P7vzcv2fTQE6rjXUdxtwyPHiIgKWZdDdj3JhwVRVtJfh+uBgyqGFw0zHfjoaf4yZx3+2bbdl1zZs13FERcMevNRt88fKlsVUJIZAH9ZxyOLvaqhIa7pA5u1dgEOmYBmXOyc7Es/cVfQ7ccqLP1u/ViPYxomgon14aZxr+t8W+VrvI36PvBTFCpskrahNLIihJ9mQXEqxiWr437jc51oQTEF+rIrBUmR7/GeQ2s3DigZUtJdcSO/rO9syTkVIZcgcXBvZPIa0/jVIJOG7r2akZUEADIdFXq8TBMPxpRy+6x8vmJe4OQ9lA9EaB5ZxtZ9cyB+56Z/suBa/fhrU/Si2UjbZUBR7VcJMFRVNbJ8hzCde7yLKmSq0US7DkflCkQuteG82wOmDKu1evPAlnG+p7iBrMVAUXjxpRmRz8fdHVa/S7j7y1Lf8DV9be2Uo0Lr+XbrpyItn/xbja/11i7uPhhKtcaKoez8do40kg22732OQruBluZTPYDG0v38SZC9YBfgr/jMr9cfyoy54EyRYupBZIcmFlYzWa9uN/pkMRdHdvvbSeHGhBK7+p0rgiuSCMOIceyqJiyUTbV4FEZJY0JA9mXJzhrQsOS7ihcUvPq7u1mANG8oECQRBn314kUt42splZfozibyw2tONFX0lTHBIZCaUCzH7Mr/0nZOMLK5oZYxo+wV8AhnOqn9ma5yAEd60fXlhnYj/LLEQ/eMZucte9sJkNTFmVdXMUv9lK76vFZDRkuq4Ii9er8Lg04+rNRS2yswU9+fFOUWExRJ6RMt6CeHMUF+BmVLjIlAY4OOXtOQhW7kCM3FcUcdIUo7iqxhNNBun/lnC1oTLHxOF3NV+8cWL4CEX81VetJ7/JbmUVTnJRGHf8R9cZUvO20L8hpcEM8IH0TEWihff7NlsiE0GGSuSLve0l2zxZYWEN/7nWSfkV5GXSkxDfUNyEiyrIe8pf2HXqOCfQVv9h8ZKlpcm0vTbyCYZCnuRUo2llIvsJRfnpfvoWMfKCSTtTVFILqJN6mdIRJV4HXEB5WjN01DACTJH0asHsZRCCbbogy9NGpm/j/s2PNCk3kAXLW+/APVlioVVD20Q2ycHJjptnkYMh2PBh9Gat4L8vYP3YLdGrEjAFDcvv+4nK8S7RGv+a/MN30NL5+wSTuUSbzmietwIfekBh4VPlgvQfvwynI0X7XlRcOFklUgiG1fAPsXbl1WyFij5PgHmZOp9obVG1jG+vxkbvRdGvOiYJFzwDVIRQ2D7tLLqUSt/qnbhtAxgaqdSok3s1fDMUeqWrdjgY2jeQqVJJ9j2Gc7zRhKEKUQTqkkSTA7K2GCGzyurntVF4kI1TbaHhaMORbSXw+8E1ih8yTZdbbzj7XSoTlJSDo6VHdQr/ZPFlwk8DUWDUmBltbbseZBygJOFzfIK54Uv1TvRMYtcVe4b1zT3AbptCl3aiR+rloXTiCYsigb2Jnt1X5PEW8lJ2JhiSubgHJ1EGbDgvbIlsbiXCDnR+geuwet+2IkX9p4aC+KVZoMPKgnxxxwKJFaSFJJpsuFoZrbJSDs29kKBNrtg+VlDlgCZ+LsegohJ6NV5qQarV9iFlbOpmqgaf++xYaJ44lkzPwaTgXA4FK1aPtFFO1avQg1P4Euhyid+TOD2UN4e3LTLzG6qNTu8j45aUSW2SNaG3mtkFrtFeOhZINE8DFvCTqX8sk4NC9rBbzmnCxfeMgkGZr1gI1GomPt4ycZKLuFs2qVt1DtD9aQTdOW+19gpqu4kQvcq+dydwXl+3Lj0DZJidSuIVAj8wlpBsZKE8ulM/iimsb3Gm2qn3PJzjUKDV+Xyyo3XWr2EN/ZjOTQWvdBK3uap2JOpU/wtwdJLMuTRnlHETLyUw8drbADXqDvGF1RxW/cq2+g8iJN3mcdSRUPiZDi5nKxGFTGbrfWSOy5uKqjzMD15ySW83E+GFBRJLik4xG3bLPNN1ABKsFF4Lz6LxAMnAP/ZKy4W91mZH70HNr1vtOgn7ku9vtyqN1Ms+nyBm+A1opHZUEL2WIB50Yjb11xDxCBmEhUts9sMj1WAs+Z+vmxbPuRuRc1G/YCuTVvX5wHxJrCvJm5Cf+9OrdKd0/xb7RBNLd6xtu/aQgNEkfL9iSXKCgi3A415q3hF9kfdjM80gZseVeZ4RS7CrFR3y63LjyhaZ0r1LHESq6RsfPFz26pkFMPk1QAOnVEs2wHgl2kBswNWxn1KqHTsO5fDlYmWnZ+GtcCb9UiAOW81kKhwLFFCMYibX8Km6VipuXKp2d99+3YaHCCYCsQr4PR6Ta5lVKnwcSNJnHRDqgfkntOhJn8OcR8uJ3UXqClZKAJEVQHoUrbtwz0XuK3VC2q5QtGkZJXwbi4M0SzU+VpQir9gHYt8PgZg3jaA3Wyf3mm8DyGrKkqzWHyywRiujwlP91/JoL6lruLQUkJAN9BxxZVDjNQ8RfvAy327BToNKggESb5aqP8cV3u5ic/5for4leZl1QMg46jVAOnhkD1qmsgy4otBktnh6ozkAmVXuTwKYJ7VWngrfJbuZb2LrDr6dcq2X1mCgbrcA+DvrIah6H17y5wVEHgERoFkZC9OCyZBK7yPAJhHjSaTSMZ4VOK3jd2RxV+nZZlhsVLrCxuSsDFJSqbJtlfQjRqAU2cWrV+TyWHoAmpCPkiZ5CHZE/XOm7fE9Yp+c6dn8ctVKvZKXZzt5kG49HkaFFJoCuHgMEXDhC2yfhtE6YMCwaAJ58MAk2GlumGyfIXFmzo9i3c3g5mKWczjWiQnd7VslJYqDPMpO/JKV6W1q0FhU2C1Lh8BMM8F+WW4XKDy2txXalWxmqE1xnv4GIBx61tGSOyCHSJlYXIqUiiRYhXVs0gT1Y/F/x4CmI34F4dAj8v4oq3/yH0y93RzJ5Yyl81J2Bpd1sGQEfBFitH8DfoLWnWn5qEwKB7mfoB50XhLjrRTX5jfbzxcgLaqUsyvIKDqEfsFOjuvYfZOStTeJYAuxctsl9RsAoqi1QMAcxkAwNQlI22S+Fzf0dyXtKqygssELWR2ZluSsE103QUHCAP0WKgno/+j9ZdWRBDNmoXE2r12SbBSTE+/Chz2qO05CpnSqrKSeNZIEh3bqUb6LRRW5StMB0w2XdajEtFX2RXvBZgRViI7ljqvAjLJHQSLB5o41kmXZC2kXhI2d6tdM5oH9hO06dB2Y6fFu2YX0giGKul9ADMUmCV0qrrilxFpSNmCqleq7EkPTNBMzI23JmGbeQHsh2TUd6qqL6u0YdatLs36t8O+Wwx6FOZMvFmOojvJhdBjMcUigCyYf7dq7w1aMmqVHk+cOTQRtV1YlqVBJJhPdQ/APFXL18FoAD42Go+OTzD9lapYVRpLa52wx/CikN87S16kdSlROgy6LgpXVVVNMse5dWEUExB5s9KPpsqCh2Ajpfr9MiWW5SOT14wXq1V6xEgP7xxfkqkmE4lWE9Gx2g4we71th4gMkJRBM8GpUharJJmscInd69aSmfgCaZ9UEWQ/RVChSnYyUSczkVYVMbMVYPaqtIVFLcHguZtMcqkmSbssf9mxn8C2r7rgHVL/AtBGe6Uw9ax1oTq9fWqpVwO3IqKWwTxQs0cuhKkObR7DbZY7VXqFF/OTKPZrDUMLaJyGV1akNtPXmLAVYPaad2OrTBpoUBI7WdxNPgaL71SBV14chI8+ArRZcXGGljQCANhU91Qwe2iqJnbwKFxx0SK8TFLmrWqVE395fG3UeClwKWeGqVM4GkM73Hbmjc37bG2R9w61PVHYAoEzalbJIFUxNzLiShMW4MsdatbGi4Pyajajm4esXy6oyMU6ChIMuO2+BWb0mtdpL1y/l8yyktyOJym5B1KtSJw89O4zETehGAVLFBiUM76DZaWKAKuEwnE2u+WaPUqUaImgxePDjHeDWn0B8AiDEanFt7PlW0US1gk3JjupRbO+AmqBy5HHahTHbA7OvTOHopNjZvcq2moJHZtkBWQZHtuh+j7mxaWyn3p/FGXEf+bWj7Zyid3cBpp6DfZoKkDFeKYYKtun9KhE5NIfd7Z8xZYezACja4DTNm/BPaQqxbWMs8k2gNkDWaIiUniJvgHtlQmM3oCetaq3dsIe4AWlhaIAglJ90JpZQYPbpSV75o5TiPmwkReH2IIpD92s3qJh1i0yl48N22MaiiplKSYbRi8A0BV1LHMfBglZXW5jNa5Hk8qSPAWW0pHOo25lLFR4dY8BIuqSSRB2KMRqSEgFjGwUUq6sVWudW6u2VEn7wsiqF1yQmwmULCep8mLAtYT33y0JAwWN+lz7AfLTcqwH2hDrz2YiMrPZAjB7zV4M3kH4Mwy3qqrqf0la5c5JGGjeehWM12Rcq7LgiiXV4b4rVK9T+3pzbbFHR8/ilgIYlkuaE6lKcyqW6FU7j0IJfZmiOerS6KOXAoMDqHEovGp6oYAfnmgT3OhRpSqkqYOaCMsl819pY6Tu9qh6+DbiZFYcWBesDuMxwaL9mWWVIIYhM0sF1oPBbdChd5u0Qzt5ZvXDqpKZBCnrVctKs4v7Uu/76bbROBIRBVfAJbKxgFDKSgMemU/O/MFqkD45rVPrgxdK1dFZ3v6CrdOYn0xGEWO7JmGJFM96zlh5IEomVwp0KNHx0xoJlDtzqCsudF4HIDCpIyt85V2aye6rasmKPOYnPb5yLygGOmqkWOIpJHIFPHkdzORY1Q8OVefuN4W2i9AW1gP33pruaoCzSrUTKjXhMb8s6XtkPXwTcZeM5KCotWKz8TY+qKUzIEJzaDq9TEacteA/d02GTTPMim9mWZ1V0PeSZ9dtknAfKGZ0LpIge5HaEUncI98EAFhWVu5RXUiDXpUFhG+1OWHn8XR6Udg3ju1F9ZM3Y4Y0Q3vieyRhGUn/yvtg5ZZ4AYuhyGl6w5YpSqbtVXO9nVrxRWGLjQyLFTo3q4wPqrL2Ad4a85b7QLFEnXhiKx/Rgt/akKAUA8zBoqU9V1QaNlM3ehqs/OUNFBnIY4OZVZVV20SdBXbozNVTLJ/oouEFU5ZHjyq/+zpFY14Qb2diE7MvUc+cWHij2UpvqZ2IRQG3FHhh++oBS/Y0CmDV7e+RhI2oRXyRNrQ8Qr745a526oV4Rw0YG082sqwAk2YrNTCpU3f6D4rLomNlQtlcxmC32XPwfJLlE0mmHBRdXWpn9Hjxe9EW2E9vHb8KCpZXylg1esOmPiHkokglGe8UJwtUYeuLAdrJXB8/XrMfFEt0zdM1rGPDVXbkwvHi33XQSrONX1ubDE5MWBvIiXgPvOIdxlQKcWlOZxRnlWVdirurGebH6KGwJ7JCg4uORsbEUEaN91/Fy/LExaCcIKkcjXdHV3oevEPeoKUL5cejs0O8VICTVtLlRy7Y9vdKwsb0vqEOwsazFhZ/x+gnCU4nE/YTrWGUqmcqrI8HjbMndtBZl3kI0VPNXzAbgiADs+GJ6P2SsDEdxuu0/9r4MH80m153ujJzUcOHcGiry3lw6ocTPi4K61RrwX9WYcYtWR/5xIFypD2TsDHRcx1hwwAR8/IHSgCzKtct+DTUtHtkkWnaIisjy+SdC7MqlVulWpj25+mWT0SDiw4PP69IxbUSsflBknKlvagpIv3c2b2rzTv15r6wQVWqWqackqRb5es93fKJJCULq8csLH7Rcyc4TZR+v9SxAM5U5SNLHUqeGNzXZzowASXOYIbsXpCd5cUslg/PwgunZPHS2cP0MqLmPCYzafgLSRialmV6inDSOY8MQaFxgcIUqmSuQB1GI5OWK5m/cudO2DaSsqLPHuOl0cEMlLGOiIKXpYVuCIV1DJJAzTNrgBZoWQ7Kx/iBHbHCp0GxREctHuCQx3hlpFO0Pg1/zYArJ1Yd19mV6Fb1pvFojTP44p0BmjBI5cXq+1ZcSo/nP5lkcFH0IITfF7/SqK2D0YoCSr+/RBtegkyFGman8wiGFos0clGY4g3w4SjETtBlfzIUS4SUjO236ZqgNfPRQ1kBabpVspPxdlpCRmEfX+P/rRV0o1xSpQ+WI9w8KQkbU0RTyGc96wkeKlEgItGjs5KDPQyJkkYnfy5+SyUqJanmsglaJisGuC1Jf9KMyhOTsDF1OoFXeF+kDAoFCAyZV6YcqNWhNtuh463Yy2b6wt3B2flUVQ3NHFWyMtnO06FYoou2sMgNtK4dGO3PxVcDYZD0FAEMtxJeCpNMZjquoWbK9V3NqjrYw9pA/iqlpyZhY7KDimRMwSODKhy6p85b3o9ZTNwT276WOxFTNC41svz7QK5yELXK6vzK0/NZPhEGfQr9koxYwrmAkBK4H8UMDEl2gg6K7OkAFm5rJ4ZfTkMYsnpn3jd4FiiW6HqKAlDhsjlS1RwJGZT3ix8m1F6iXCe8SKBXmC/xMWrrNCnP2bfpTNkvzREKtHxOyydauryVLEOeTnN31MlckdeSDMCwH/OpRVgYxnR3o/2alemvNYPhNsVzWj6RPEvmkw3jrqTxoDKaqWBSIjWZwI9pYERrmt7e5G3U64+Y2NQMztD+MyRhYwqpUerUcoCo8BCuFEzUAQHAMBTogL6c8U4CbdPyZziaJ4VKDZbPkoSNyYZXtfejAUIlpV+DWEl6mFOLd2r7mkziSYdk+Qcf0kFKyZPLoYLPbPlEX6YKn4pU07KJQngymfYxl4xnVFXHYDSYSzbLvy2HbM49MzreiGdnxUY+8UiPSalAi5tvtUpABlyVJWN+7atL+kB6GdTyTz6ig8OCSb3W50zCxnTboM+gDtb5BHuRuodRD8WUvoNMraUXX6jF8j8NmfvS+qtqGe3KcyVhY8LElQ1gZRVIByPoU4Jst0P5i1SPHdq3xE+gRf93GCzCpnCfHm97tiRsTJcN0DLiJgBzYS/zTIuh5AoNFWB+gdkp5n+u7GAxm7dIEZZE+2xJ2JjOajFyrxPRNhEvmiOOVvJ+WK7agPKSYhNp6/Ts7GqY4Gn2iRXYygQunx2KJfoWtPDgC4Bd9WLKGt+tdE+R7MrddSjuo9cZ//7uw6w0E0H+VgId41ij50vCxvS5xiSson61Zw8369X6JUOeIFiUnCOrv9NN8GFWIg2eAClo+SN1DPY5zvCR1GHcQhCvR+WRlUuBoxSyU0OGhdMhO0CXPf4AfJ+eOMoiS6mcPTcUS0QnOcmQn05fFyPLESAQkt5MUODSVmGB6TNXcFS1R6TT44Y5ENs+Svsc1AIWaqEeuaLU/BRqdgrEdAykktqFZdL6HLZlN9lUI3JsSa2ftfyyTjdBBOK02FV4Y0YzRdYe68VAjbqUuGlFp0+pZ65e8lQjwOkLQLFE11PNQjB+jQiY+nfa3+KMzO62Q/hBJhZmeKwhK7uORkT5ty/ICj+BJ1U+px4Mg3lWFC4cJn2N2I/ZZIK8PY295W0wZUN99bMnYWOiLhnUCsZsg4b2lA/Cnw4XVVUHV6EATiwfWmahqNKMQRoWL5CEjSkAkAH521Sss5uljp9O4eu9JrkI+DduJzolpsavnXcddX7+JGxMfOKihkqUhzF9hVqkTfuYNXTOkpfUGJ7Yw0Zs9DhfEKM3j3l0/mn0ZQrUroNKDuf6IbWh9HKWhkFKiS/ALhJsZ2b3ZSqAJ7vRQPPCrFBKpqNG8ExSG06eTD2u1ZSia63+nKYnM+lPzF9lkdHCjMryRZKwMd02yR9luXKaAqVfhiwK0unli1/QPfdq+RWSFA37lXRdSzi2Rx4B8kRCBQYY08PiReXEMLrECZ9erkMn8mdBkSdwpOpZJqvJow5neDod6THBpmF6ioShgULiB1t1+qiP48UfjfqNPh3tmkXK9D/TCyVhYzrD2LIl+ak9pI1i7wPP6A3l96z3fPzua83mIvOuZYr7GTOoYLwoFEt0Lofeqnv1aNIVzo4oVK+bnV6ubfS/eFbLHAOsZTJyz4wtXywJG5Oe5yb+K0uZYfpa9RuuNhz2svitb7rkrLWcN0k+Tx3zCyZhY+rQoEe4LDTQIKGn15ebPxPnePHzgJu26jkCTVmZa3tZKJbooi08KndLOR/GpTaANjTCfOPZ8Yu/P+Z9IoiEk5xl6oi/ZBI2ptrODXIzGfNVM8HjMsRN69bHtOg87ImhgQzB8HztrLKBvtexfKKbYGWX2YQ/jsFpjzjVyx11z8d6xh/gkap4uWh4gHdmCc+LJmFj4k+hkA6SzOPww6pcwtBznTXjnJ6nTy84XnwfUl+CC4GGyGRKdIbK2LP2wB+ipT17OdNn7PkgIqdZo8d0mw/1ZXbYC5A+UrCJpDfLIPWZWaV4/xWgWCJOydiZYaaYDyLSXplWWsSztf47H/byaZAncldOEquqmVXNMVGz48EcT6WAOoXuJW8vCn9ZoYaEQ0fXXGRHCU2spkHxVD0H254ONb94EjYm6pLxLWMOV1yR9AE8zkDV4ZDQdHpkLEpn1my6+orDTqmSiTNMXjoJG9OXWhtKs0qLreSKHNqz2jKz7MyF5fgDT9Qvl5/4U6k0SZvhEYBXZSUdjMK2zyUwNGcBAZx2zhVU62m+2veCXG4WEQgE9SQql1e1fKLbWtSI95LP1kbWjLqZtQO1RCun+ZY4o4yjfeQFB1lKXe3lOmH3kRfL5vgyaDfSext00QE5dW3cCitCp4X8aFsfBUteLQQO8AFumgu8RhI2pkt+NoHkgkPuUrUPg0AiFm8HltOhhVxh/Ygh8yscy/lb34rtP9844uPprGZYPOOYXaDW7wyooZoJ6agP8MOk/PgRqb7xwtOofEbLK0KxRNwlK7rCBsItI9MxBi1VWnVGEEHoryRTYRRzldDn4pg/3umVkrAxoUsmKRnyfdRhVee0kJZyT+lWKOzK5PJu8V0e/HtNKJaoc1kNQ1nCHev55/qwr0AabdGGygZLy2QvgtbK53gyZB+6aOF6Uw0WritNirjC0hoJOdmJPJCLfooUFcleLwkbUytW4G0OQQbKMFGCifACD+sKR8ESsQg1iRf58ENt8r+F5RPJ+dzSwrCBF3Qu1SsX2j6CvRT2WaCML6Pt86dIYUDhFZOwMV3rc4aFs3/sNCmxc8yYFnhgxMnJYuTCWA5XnDVXCdS8ESt8/LmTkJ7NKqaOkTowV2i2I1qYDi8gHTsasrns14diid43atsOs/n4cI808EYfWPZ+Hqy5pyfgSgkJh7vDS78+FEuED/KDI1MB6UcusIKF6TymOwG1s3TiW4mZi/RY6SsnYWOat3aPSY3QA2T3NT2lfHcedGjUuZHtJ4lM3iAJGxMd7yE65jFBLf5YX2h7ubu5PlhNASmgQpHGLPRJk1dPwsZ0qmeIYlIXTXKWVtt80LdRSq0FArOXNJGFgdc3tHyi29qhdwGwYr3i6Y29Te1FxhRQ0cvmEiQ1fRsolugwGKq0GjPj5HCXoRHWMUma5SBZHbEoq8RTNbx+EjYmOsTC5bHS4mNux/PWO4w0homd6TtJ7aOKT8h/a/rQtgZcCjykGP8VDyY0DzYEzNiyRHUfJaZyqN7ShyW6mQbgYpg+g8ja5sLn+LzVgk8VTI+DwV7eJAPbSCfculPztnmy6JLDhbyB476ig5CmFCS/LMs3t5QR3fZNobplqQwx13RciSDbRzeT5ZJPlg5Xb5SzbKWjRj+sJTUt+f/ptzP5sBdt1UZeIBbpvFRvBfPvIXoez+SBR36iDYX6ko8yw0P7Adk+B8s3jo9b6bpr0CwHPGMzav23gEKZ2D4Cv35I2Q9J751Mylq9Ur6EGR+MKsgtncI5fPzRDGVM/JELyJsL1DaWdKKIHluEk5Hp0/x+cDr7VtuzVAU6XsuJnCiiOXL59kDykfS5qwtvT/qxlPRD4aivIfbyIxvKmOjMNI/zyZx0iaz1HeVin+b3X0HzacATVSIXTb1oJKEs9zjR9S3p5FSf/mbcwq2KSk6L69+myvokAqxhP2aHRv4IyH4fOmq1tBGWNub3YyD7fShmA75wOCFx+HGQ/T6k2QDp2EuP578C0SdJUVc1+2zF/2I6qtvlj5ICP5nOzvv/amtuUXYAAAVXSURBVEP5h/6hf+gf+of+oX/o/ymd3BJ9/hHA4/tpm9oLRtfx1VP76Wzatm39bcNfHy2bumnatolfDk/nKN+d0B8Y9afzjeDyCy97vrokvTodlc/i9Ru+m9vRuqC0RHN46NcuM28Ps/OOPsT3HB42a+963zbhMCO7g5P6cERt3W0ovhy1/LtNr4ZuxEt9GISX5nADtdYb/RYO67UL9aNbX4bDeM/NagXlaEpXbZuWJNPGW6hNLsRLMKIfpuui6WTZlQqmcFjnr0ZeDlUu2ZJ2hcZ4ed8ctqtKdh03IqnU2fQw3Bzmr8gNEyt1N794f3v7/uLy5rT/j/0qXtyfK31btrydq6x80WVXlEx4GQnGeLn+hkV9fI/9cGTvjH/br1zmsj1skxTi6vV1FN+KksVXDtvNZWHiJb+Zo8hMc7HyJlr25HRNyYSXwzrTAuMlURffsaGos0HJoorV6aeoYofRNnL2iOoNareFF7K/VbGSih0eXDSri0Re2stm9PdbeNnQKFhXsg0qRj5ifDef6w16s42X69UXWEWj0Z7Vq0wSL7fnIWfx8byQJxsr2ZqKkX2ejmRFTmx9q7fyQnez4i1JxT7zss3q6+37aEvZPe3Ay5qSdaPbjrpAKh21YaRk9PPNwWbayMuKELtDLDtWMuaF7ikZ2A68rCrZyUju5G7ODzInn/GyHmQfzcuJaO66kgkvX+pMMDvwsurJNqrYmpI9kZdLLLtccZDCy8F5mwSzCy8rSramYo3dfOZXn8hLBzs5WnGQ+nP0OGZhu/BC/vYyv5FMmUgXvm1a8Wm80EUkSH5ZUTLwdtPa1u3Cy9iTXbb5/mfbFrVhuicvJ/WKrzQVY8HnuosLZuzvxAsp2Un2tuyWsysdtXnw3omX+Kcjx5EDvhUlsx9JMEe785Ir2cnoD3OFI6effrMLL5+jd2mOshfyaDzW6cTLWQPB7MRLrmTj3R8pXJTR1EDQQ7z0F0pH8ztSlyaHT/NcFmNfk8REicfR7rycJiUbq+9I4UZsrvFy6vv2LPFymJIlQujTEbQcAb6tBhp3OOzOS1KyNRU7HPs0O113nZcktdVc7LAZx/brsascXSTjBYLZjZeDKRR8TcXyuyApQVXWeUkwnHmphUjr2w/jq83Xl93ECwXxdndeaFP5d6RiSbOjLoSbudFddlsP8dKdCRFEbnO737hs2r+cl0tRlx15uVAHOJb3Nee6SfHpJyjZg7zYzTWr192wbLroyEWLYHbkJWZWnJaOVWzerlcKoGSP5uVguVqLuG/ZMS9xH6JgduUl3gkp2bqKrVU9joyXcLOywmZe6FaanG2/YVnbwXHopOLGzrzQNh8x1B6r2DhLu40MLOXbmCmML7CVl4OL+GMGXj/XK3KitUx3x7yQYOa78hI9WbzAmoplmJOpMW2g+x2B9e28kGfJNmXerjmDNinZCqQhTThZ3baHeCElO1uuqtjqH8REHPdBdjkfL7CNl7M2r8j5zct+2MjLh4jk4m9344X1P2TBcFPBIVcysuDm3BY8uwtbeTl4T1qm1b51FZNl7zbycqD2tBMvlPyEwwdUjKVRSx2csV+o/d23b6d3XVuH7XKJSLw1BH+zrmK57q7yctHszgvpyOGogrZBF0Z3cl0Hq4SOHes6L6z35/hufdmku6u80G3szMsFF9GX9vPnadusFjTlVdzml9Npq1yE0DZ13YGX7E1KVKKfvpdvVn+nv1YQVcv7xvfVrPDSN+30Hl7O5peRUgn7Nv60ocQaX00Wf/LhfBk9hO9Oz+cXyevSUqtqdEGrb192jmXp9+MyKv3h5UoF9yi+fVSD/T+rMG3gvQUiowAAAABJRU5ErkJggg==;" vertex="1" parent="1">
                    <mxGeometry x="56.25" y="375" width="49.11" height="60" as="geometry"/>
                </mxCell>
                <mxCell id="37" value="" style="shape=image;imageAspect=0;aspect=fixed;verticalLabelPosition=bottom;verticalAlign=top;image=https://upload.wikimedia.org/wikipedia/commons/d/d5/Virtualbox_logo.png;" vertex="1" parent="1">
                    <mxGeometry x="230" y="550" width="92" height="92" as="geometry"/>
                </mxCell>
            </root>
        </mxGraphModel>
    </diagram>
</mxfile>